<?xml version="1.0" encoding="UTF-8"?>
<svg height="16px" viewBox="0 0 16 16" width="16px" xmlns="http://www.w3.org/2000/svg">
    <g fill="#3d3846">
        <path d="m 1 5 h 14 v 2 h -14 z m 0 0"/>
        <path d="m 1 12 h 14 v 3 h -14 z m 0 0"/>
        <path d="m 6 8.023438 l 3.996094 -2.011719 v 1.964843 l -3.996094 2.011719 z m 0 0"/>
        <path d="m 6 11.480469 l 3.996094 -2.011719 v 1.96875 l -3.996094 2.007812 z m 0 0"/>
        <path d="m 1.984375 1.945312 h 12.050781 v 1.054688 h -12.050781 z m 0 0"/>
        <path d="m 7.03125 0.941406 h 2.042969 c 0.570312 0 1.027343 0.457032 1.027343 1.027344 v 2.023438 h -4.101562 v -2.023438 c 0 -0.570312 0.460938 -1.027344 1.03125 -1.027344 z m 0 0"/>
        <path d="m 6 4.023438 l 3.996094 -2.011719 v 1.964843 l -3.996094 2.011719 z m 0 0"/>
    </g>
</svg>
