<?xml version="1.0" encoding="UTF-8" standalone="no"?>
<!-- Created with Inkscape (http://www.inkscape.org/) -->

<svg
   xmlns:dc="http://purl.org/dc/elements/1.1/"
   xmlns:cc="http://creativecommons.org/ns#"
   xmlns:rdf="http://www.w3.org/1999/02/22-rdf-syntax-ns#"
   xmlns:svg="http://www.w3.org/2000/svg"
   xmlns="http://www.w3.org/2000/svg"
   xmlns:sodipodi="http://sodipodi.sourceforge.net/DTD/sodipodi-0.dtd"
   xmlns:inkscape="http://www.inkscape.org/namespaces/inkscape"
   width="16"
   height="16"
   viewBox="0 0 4.2333332 4.2333335"
   version="1.1"
   id="svg930"
   inkscape:version="0.92.4 5da689c313, 2019-01-14"
   sodipodi:docname="com.github.huluti.ImCompressor-symbolic.svg">
  <defs
     id="defs924" />
  <sodipodi:namedview
     id="base"
     pagecolor="#ffffff"
     bordercolor="#666666"
     borderopacity="1.0"
     inkscape:pageopacity="0.0"
     inkscape:pageshadow="2"
     inkscape:zoom="31.178136"
     inkscape:cx="9.2056588"
     inkscape:cy="10.739634"
     inkscape:document-units="mm"
     inkscape:current-layer="g956"
     showgrid="false"
     units="px"
     inkscape:window-width="1854"
     inkscape:window-height="1016"
     inkscape:window-x="66"
     inkscape:window-y="27"
     inkscape:window-maximized="1" />
  <metadata
     id="metadata927">
    <rdf:RDF>
      <cc:Work
         rdf:about="">
        <dc:format>image/svg+xml</dc:format>
        <dc:type
           rdf:resource="http://purl.org/dc/dcmitype/StillImage" />
        <dc:title />
      </cc:Work>
    </rdf:RDF>
  </metadata>
  <g
     inkscape:label="Calque 1"
     inkscape:groupmode="layer"
     id="layer1"
     transform="translate(0,-292.76665)">
    <g
       id="g956"
       transform="matrix(1.1882522,0,0,1.1882522,0.97186935,-55.902231)">
      <g
         aria-label="ImC"
         style="font-style:normal;font-weight:normal;font-size:1.63288379px;line-height:1.25;font-family:sans-serif;letter-spacing:0px;word-spacing:0px;fill:#bebebe;fill-opacity:1;stroke:none;stroke-width:0.22266597"
         id="text821">
        <path
           d="m 0.10943267,294.51412 q 0.042455,0 0.0718469,0.0212 0.0293919,0.0196 0.0293919,0.049 0,0.0523 -0.0326577,0.0849 -0.0326577,0.031 -0.09307438,0.031 -0.09470726,0 -0.14369377,0.002 -0.0032658,0.0196 -0.02939191,0.17635 -0.02939191,0.17472 -0.03592344,0.21391 l -0.0342906,0.21391 q -0.0359234,0.24003 -0.0571509,0.40169 0.0342906,-0.002 0.0930744,-0.002 0.08654284,0 0.11756763,0.0229 0.0310248,0.0229 0.0310248,0.0686 0,0.0424 -0.03429056,0.0718 -0.03265768,0.0294 -0.09307438,0.0294 -0.0408221,0 -0.12899782,-0.003 -0.0816442,-0.003 -0.10777033,-0.003 -0.10287168,0 -0.22533796,0.018 -0.0538852,0.008 -0.0767455,0.008 -0.0359234,0 -0.0604167,-0.0196 -0.0244933,-0.0196 -0.0244933,-0.0571 0,-0.0588 0.0522523,-0.0914 0.0522523,-0.0327 0.14695954,-0.0343 l 0.0767455,-0.002 0.004899,-0.0359 q 0.0391892,-0.26127 0.0571509,-0.36904 l 0.0359234,-0.2139 q 0.0326577,-0.18942 0.0587838,-0.39026 l -0.13716224,0.002 q -0.0587838,0 -0.0816442,-0.018 -0.0212275,-0.0196 -0.0212275,-0.0539 0,-0.11103 0.16002261,-0.1192 0.0751127,-0.003 0.18288299,-0.003 z"
           style="font-style:normal;font-variant:normal;font-weight:normal;font-stretch:normal;font-size:1.63288379px;font-family:Pacifico;-inkscape-font-specification:Pacifico;fill:#bebebe;fill-opacity:1;stroke-width:0.22266597"
           id="path823" />
        <path
           d="m 0.30537701,295.89717 q -0.0620496,0 -0.0881757,-0.0653 -0.0244932,-0.0653 -0.0244932,-0.20901 0,-0.21228 0.0604167,-0.40332 0.0146959,-0.0474 0.0473536,-0.0686 0.0342906,-0.0229 0.0947073,-0.0229 0.0326577,0 0.0457207,0.008 0.0130631,0.008 0.0130631,0.031 0,0.0261 -0.0244933,0.11757 -0.0163288,0.0653 -0.0261261,0.1143 -0.009797,0.0474 -0.0163288,0.1192 0.0440879,-0.12736 0.10450456,-0.21554 0.0620496,-0.0882 0.12573205,-0.13063 0.0653153,-0.0441 0.12246629,-0.0441 0.0571509,0 0.0800113,0.0261 0.0244933,0.0261 0.0244933,0.08 0,0.0523 -0.0310248,0.18942 -0.0130631,0.0588 -0.0179617,0.0882 0.0816442,-0.20084 0.18125011,-0.29228 0.0996059,-0.0915 0.18614875,-0.0915 0.1061374,0 0.1061374,0.10614 0,0.0637 -0.035923,0.23024 -0.031025,0.14206 -0.031025,0.18778 0,0.0653 0.047354,0.0653 0.032658,0 0.076746,-0.0392 0.045721,-0.0408 0.1208334,-0.13064 0.019595,-0.0229 0.044088,-0.0229 0.021228,0 0.032658,0.0196 0.013063,0.0196 0.013063,0.0539 0,0.0653 -0.031025,0.10124 -0.070214,0.0865 -0.1518582,0.14206 -0.080011,0.0555 -0.182883,0.0555 -0.083277,0 -0.125732,-0.0473 -0.042455,-0.049 -0.042455,-0.14043 0,-0.0457 0.02286,-0.16329 0.021227,-0.10287 0.021227,-0.14206 0,-0.0261 -0.017962,-0.0261 -0.021227,0 -0.0604167,0.0555 -0.0391892,0.0539 -0.0783784,0.1437 -0.0391892,0.0898 -0.0636825,0.18941 -0.0179617,0.0784 -0.042455,0.10451 -0.0228604,0.0261 -0.0751127,0.0261 -0.0538852,0 -0.0816442,-0.0506 -0.0261261,-0.0522 -0.0261261,-0.12573 0,-0.062 0.0163288,-0.17962 0.0130631,-0.1045 0.0130631,-0.13716 0,-0.0261 -0.0179617,-0.0261 -0.0244933,0 -0.0620496,0.0588 -0.0375563,0.0588 -0.0734798,0.15022 -0.0342906,0.0914 -0.0555181,0.17962 -0.0179617,0.0768 -0.042455,0.10451 -0.0228604,0.0261 -0.0734798,0.0261 z"
           style="font-style:normal;font-variant:normal;font-weight:normal;font-stretch:normal;font-size:1.63288379px;font-family:Pacifico;-inkscape-font-specification:Pacifico;fill:#bebebe;fill-opacity:1;stroke-width:0.22266597"
           id="path825" />
        <path
           d="m 2.0656249,295.89717 q -0.1943132,0 -0.338007,-0.0702 -0.1436938,-0.0718 -0.2204393,-0.20248 -0.076746,-0.13063 -0.076746,-0.30372 0,-0.24003 0.089809,-0.42618 0.091442,-0.18615 0.2465654,-0.28739 0.155124,-0.10287 0.3445385,-0.10287 0.1763515,0 0.267793,0.0914 0.091441,0.0898 0.091441,0.2384 0,0.0996 -0.035923,0.16003 -0.034291,0.0604 -0.099606,0.0604 -0.045721,0 -0.071847,-0.0212 -0.026126,-0.0212 -0.026126,-0.062 0,-0.0147 0.00653,-0.0539 0.0098,-0.049 0.0098,-0.0784 0,-0.14859 -0.1583897,-0.14859 -0.1077704,0 -0.2057434,0.0702 -0.097973,0.0702 -0.1583897,0.20738 -0.060417,0.13553 -0.060417,0.32331 0,0.19595 0.1094032,0.30372 0.1094032,0.10614 0.323311,0.10614 0.1061374,0 0.2139078,-0.0261 0.1094032,-0.0278 0.2416668,-0.0833 0.024493,-0.01 0.040822,-0.01 0.026126,0 0.039189,0.0196 0.013063,0.0196 0.013063,0.0506 0,0.0996 -0.1077703,0.14696 -0.1159347,0.0506 -0.2416668,0.0751 -0.1240992,0.0229 -0.2367681,0.0229 z"
           style="font-style:normal;font-variant:normal;font-weight:normal;font-stretch:normal;font-size:1.63288379px;font-family:Pacifico;-inkscape-font-specification:Pacifico;fill:#bebebe;fill-opacity:1;stroke-width:0.22266597"
           id="path827" />
      </g>
    </g>
  </g>
</svg>
